<?xml version="1.0" encoding="utf-8" standalone="no"?>
<!DOCTYPE svg PUBLIC "-//W3C//DTD SVG 1.1//EN"
  "http://www.w3.org/Graphics/SVG/1.1/DTD/svg11.dtd">
<!-- Created with matplotlib (http://matplotlib.org/) -->
<svg height="345.6pt" version="1.1" viewBox="0 0 460.8 345.6" width="460.8pt" xmlns="http://www.w3.org/2000/svg" xmlns:xlink="http://www.w3.org/1999/xlink">
 <defs>
  <style type="text/css">
*{stroke-linecap:butt;stroke-linejoin:round;}
  </style>
 </defs>
 <g id="figure_1">
  <g id="patch_1">
   <path d="M 0 345.6 
L 460.8 345.6 
L 460.8 0 
L 0 0 
z
" style="fill:#ffffff;"/>
  </g>
  <g id="axes_1">
   <g id="patch_2">
    <path d="M 57.6 307.584 
L 414.72 307.584 
L 414.72 41.472 
L 57.6 41.472 
z
" style="fill:#ffffff;"/>
   </g>
   <g id="matplotlib.axis_1">
    <g id="xtick_1">
     <g id="line2d_1">
      <defs>
       <path d="M 0 0 
L 0 3.5 
" id="m690a456118" style="stroke:#000000;stroke-width:0.8;"/>
      </defs>
      <g>
       <use style="stroke:#000000;stroke-width:0.8;" x="73.832727" xlink:href="#m690a456118" y="307.584"/>
      </g>
     </g>
     <g id="text_1">
      <!-- 0 -->
      <defs>
       <path d="M 32.796875 -0.90625 
C 42 -0.90625 49 2.59375 54 9.59375 
C 58.40625 15.703125 61 26.40625 61 38.5 
C 61 46.796875 59.703125 54.796875 57.203125 61.703125 
C 56 65 54 68.09375 51.203125 70.90625 
C 46.703125 75.59375 40.296875 78 32.90625 78 
C 23 78 15.296875 73.796875 10.5 65.703125 
C 7 59.90625 4.703125 49.09375 4.703125 38.5 
C 4.703125 30.296875 6 22.40625 8.5 15.40625 
C 9.703125 12 11.796875 8.90625 14.5 6.203125 
C 19.203125 1.5 25.40625 -0.90625 32.796875 -0.90625 
z
M 32.796875 71.09375 
C 39.796875 71.09375 45.203125 68 48.5 62 
C 51.09375 57.296875 53 47.40625 53 38.703125 
C 53 31.296875 52 24.703125 49.90625 18.5 
C 49 15.59375 47.40625 13 45.203125 10.703125 
C 42.203125 7.59375 37.90625 6 32.90625 6 
C 26.09375 6 20.90625 8.90625 17.40625 14.703125 
C 14.703125 19.40625 12.703125 29.203125 12.703125 38.5 
C 12.703125 45.796875 13.703125 52.59375 15.796875 58.703125 
C 16.59375 61.203125 18.203125 63.703125 20.296875 66 
C 23.5 69.40625 27.59375 71.09375 32.796875 71.09375 
z
" id="HiraginoSansGB-W3-30"/>
      </defs>
      <g transform="translate(70.547571 322.243375)scale(0.1 -0.1)">
       <use xlink:href="#HiraginoSansGB-W3-30"/>
      </g>
     </g>
    </g>
    <g id="xtick_2">
     <g id="line2d_2">
      <g>
       <use style="stroke:#000000;stroke-width:0.8;" x="125.529311" xlink:href="#m690a456118" y="307.584"/>
      </g>
     </g>
     <g id="text_2">
      <!-- 50 -->
      <defs>
       <path d="M 19.703125 69.703125 
L 43.203125 69.703125 
C 47.90625 69.703125 51.09375 69.5 54.90625 68.90625 
L 54.90625 77.40625 
C 50.90625 76.796875 48.59375 76.59375 43.203125 76.59375 
L 22.59375 76.59375 
C 16.703125 76.59375 15.09375 76.703125 12 77.09375 
C 12.203125 74.59375 12.203125 74.203125 12.203125 72.796875 
C 12.203125 70.90625 12.09375 69.703125 11.90625 66.796875 
L 9.703125 44.203125 
C 9.296875 39.90625 9 37.796875 8.203125 33.90625 
L 15.703125 33.203125 
C 16.796875 35.90625 17.90625 37.296875 20.296875 39.203125 
C 23.90625 42 28.296875 43.40625 33.40625 43.40625 
C 44 43.40625 50.90625 36.203125 50.90625 25.203125 
C 50.90625 13.703125 43.40625 6.09375 32.203125 6.09375 
C 26.40625 6.09375 21.40625 8.203125 18 12 
C 16.5 13.703125 15.796875 15 14.796875 17.796875 
L 6.59375 15.40625 
C 9 10.59375 10.40625 8.5 12.90625 6 
C 17.703125 1.5 24.203125 -0.796875 32 -0.796875 
C 48.5 -0.796875 59 9.5 59 25.59375 
C 59 33 56.796875 38.90625 52.296875 43.203125 
C 47.796875 47.59375 41.59375 50 34.296875 50 
C 27.40625 50 21.59375 47.703125 16.796875 43.09375 
C 17.40625 45.796875 17.40625 45.796875 17.59375 47.59375 
z
" id="HiraginoSansGB-W3-35"/>
      </defs>
      <g transform="translate(118.958998 322.243375)scale(0.1 -0.1)">
       <use xlink:href="#HiraginoSansGB-W3-35"/>
       <use x="65.699997" xlink:href="#HiraginoSansGB-W3-30"/>
      </g>
     </g>
    </g>
    <g id="xtick_3">
     <g id="line2d_3">
      <g>
       <use style="stroke:#000000;stroke-width:0.8;" x="177.225895" xlink:href="#m690a456118" y="307.584"/>
      </g>
     </g>
     <g id="text_3">
      <!-- 100 -->
      <defs>
       <path d="M 16.09375 69.203125 
C 19 69.59375 21.59375 69.796875 24.796875 69.796875 
L 30.203125 69.796875 
L 30.203125 11.90625 
C 30.203125 7.296875 30 4.09375 29.40625 0.59375 
L 38.90625 0.59375 
C 38.296875 4.296875 38.09375 7.203125 38.09375 11.90625 
L 38.09375 60.5 
C 38.09375 65.90625 38.40625 71 39 77.09375 
C 35.703125 76.703125 34.09375 76.59375 30.703125 76.59375 
L 24.40625 76.59375 
C 20.59375 76.59375 18.703125 76.703125 16.09375 77.09375 
z
" id="HiraginoSansGB-W3-31"/>
      </defs>
      <g transform="translate(167.370426 322.243375)scale(0.1 -0.1)">
       <use xlink:href="#HiraginoSansGB-W3-31"/>
       <use x="65.699997" xlink:href="#HiraginoSansGB-W3-30"/>
       <use x="131.399994" xlink:href="#HiraginoSansGB-W3-30"/>
      </g>
     </g>
    </g>
    <g id="xtick_4">
     <g id="line2d_4">
      <g>
       <use style="stroke:#000000;stroke-width:0.8;" x="228.922478" xlink:href="#m690a456118" y="307.584"/>
      </g>
     </g>
     <g id="text_4">
      <!-- 150 -->
      <g transform="translate(219.06701 322.243375)scale(0.1 -0.1)">
       <use xlink:href="#HiraginoSansGB-W3-31"/>
       <use x="65.699997" xlink:href="#HiraginoSansGB-W3-35"/>
       <use x="131.399994" xlink:href="#HiraginoSansGB-W3-30"/>
      </g>
     </g>
    </g>
    <g id="xtick_5">
     <g id="line2d_5">
      <g>
       <use style="stroke:#000000;stroke-width:0.8;" x="280.619062" xlink:href="#m690a456118" y="307.584"/>
      </g>
     </g>
     <g id="text_5">
      <!-- 200 -->
      <defs>
       <path d="M 47.296875 0.59375 
C 52.296875 0.59375 55.59375 0.40625 59.59375 0 
L 59.59375 8.40625 
C 55.796875 7.90625 52.40625 7.703125 47.40625 7.703125 
L 15.5 7.703125 
C 16.703125 12.5 18.09375 15.203125 21.203125 19.296875 
C 24.5 23.5 27.703125 26.296875 35.59375 31.59375 
C 47 39.203125 49.59375 41.09375 52.59375 44.5 
C 56.5 48.796875 58.5 53.59375 58.5 58.703125 
C 58.5 70.5 48.796875 78.09375 33.703125 78.09375 
C 24.90625 78.09375 18.09375 75.5 13.59375 70.40625 
C 10.296875 66.703125 8.796875 63.203125 7.296875 56 
L 15.703125 54.59375 
C 16.40625 59.59375 17.296875 62 19.203125 64.703125 
C 22.203125 69 27.09375 71.203125 33.703125 71.203125 
C 43.90625 71.203125 50.296875 66.296875 50.296875 58.703125 
C 50.296875 52.59375 47 48.203125 37.09375 41.5 
C 25.5 33.59375 25.296875 33.5 21.796875 30.5 
C 15.5 25.09375 11.296875 19.59375 8.796875 13.296875 
C 7.296875 9.5 7 8 5.90625 0.09375 
C 9.09375 0.5 10.59375 0.59375 16.90625 0.59375 
z
" id="HiraginoSansGB-W3-32"/>
      </defs>
      <g transform="translate(270.763593 322.243375)scale(0.1 -0.1)">
       <use xlink:href="#HiraginoSansGB-W3-32"/>
       <use x="65.699997" xlink:href="#HiraginoSansGB-W3-30"/>
       <use x="131.399994" xlink:href="#HiraginoSansGB-W3-30"/>
      </g>
     </g>
    </g>
    <g id="xtick_6">
     <g id="line2d_6">
      <g>
       <use style="stroke:#000000;stroke-width:0.8;" x="332.315646" xlink:href="#m690a456118" y="307.584"/>
      </g>
     </g>
     <g id="text_6">
      <!-- 250 -->
      <g transform="translate(322.460177 322.243375)scale(0.1 -0.1)">
       <use xlink:href="#HiraginoSansGB-W3-32"/>
       <use x="65.699997" xlink:href="#HiraginoSansGB-W3-35"/>
       <use x="131.399994" xlink:href="#HiraginoSansGB-W3-30"/>
      </g>
     </g>
    </g>
    <g id="xtick_7">
     <g id="line2d_7">
      <g>
       <use style="stroke:#000000;stroke-width:0.8;" x="384.012229" xlink:href="#m690a456118" y="307.584"/>
      </g>
     </g>
     <g id="text_7">
      <!-- 300 -->
      <defs>
       <path d="M 4.5 17 
C 6.296875 11.90625 7.5 9.703125 9.59375 7.296875 
C 14.40625 1.90625 21.90625 -0.90625 32 -0.90625 
C 48.703125 -0.90625 59.09375 7.5 59.09375 21 
C 59.09375 27.40625 56.796875 32.703125 52.40625 36.09375 
C 49 38.703125 45.90625 39.796875 40.09375 40.40625 
C 44.703125 41.296875 46.90625 42.09375 49.5 44 
C 53.90625 47.09375 56.5 52.5 56.5 58.59375 
C 56.5 70.59375 47.296875 78.203125 32.796875 78.203125 
C 24.09375 78.203125 17.296875 75.703125 12.90625 70.90625 
C 10.40625 68.296875 9.203125 66 7.5 60.90625 
L 15.796875 59.09375 
C 16.90625 62.796875 17.59375 64.40625 19 66.203125 
C 21.796875 69.796875 26.203125 71.5 32.296875 71.5 
C 42.40625 71.5 48.40625 66.5 48.40625 57.90625 
C 48.40625 54.296875 46.90625 50.59375 44.40625 48.203125 
C 41.296875 45.09375 36.40625 43.59375 29.796875 43.59375 
C 27.09375 43.59375 24.703125 43.796875 22.40625 44.203125 
L 22.40625 36.296875 
C 25.09375 36.59375 27.59375 36.796875 30.40625 36.796875 
C 43.703125 36.796875 50.796875 31.40625 50.796875 21.5 
C 50.796875 12 43.5 6 31.90625 6 
C 26.796875 6 22.40625 7.203125 19 9.59375 
C 15.90625 11.796875 14.5 13.90625 12.90625 19.09375 
z
" id="HiraginoSansGB-W3-33"/>
      </defs>
      <g transform="translate(374.156761 322.243375)scale(0.1 -0.1)">
       <use xlink:href="#HiraginoSansGB-W3-33"/>
       <use x="65.699997" xlink:href="#HiraginoSansGB-W3-30"/>
       <use x="131.399994" xlink:href="#HiraginoSansGB-W3-30"/>
      </g>
     </g>
    </g>
    <g id="text_8">
     <!-- 行程 -->
     <defs>
      <path d="M 78.203125 46.203125 
L 83.90625 46.203125 
C 88.5 46.203125 92.203125 46 94.796875 45.59375 
L 94.796875 52.59375 
C 92.5 52.203125 88.90625 52 83.796875 52 
L 48.703125 52 
C 43.90625 52 40 52.203125 37.59375 52.59375 
L 37.59375 45.59375 
C 40 46 44 46.203125 48.703125 46.203125 
L 71.5 46.203125 
L 71.5 2.90625 
C 71.5 0.90625 70.703125 0.5 67.296875 0.5 
C 63.09375 0.5 59 0.90625 53.203125 1.703125 
C 54.09375 -0.59375 54.5 -2.40625 54.796875 -5.203125 
C 59.40625 -5.59375 63.296875 -5.703125 66.90625 -5.703125 
C 75.90625 -5.703125 78.203125 -4 78.203125 2.40625 
z
M 28 83.203125 
C 26.40625 79.5 23.90625 76 18.90625 71 
C 14.90625 66.90625 11.296875 64 5.703125 60.40625 
C 7.59375 58.90625 8.703125 57.703125 10.203125 55.5 
C 19.203125 62 26.40625 69 32.40625 77.203125 
C 33.296875 78.40625 33.5 78.703125 34.203125 79.40625 
z
M 41.703125 70.703125 
C 44.703125 71.09375 48.09375 71.296875 52.09375 71.296875 
L 80.09375 71.296875 
C 84.09375 71.296875 87.40625 71.09375 90.40625 70.703125 
L 90.40625 77.703125 
C 87.59375 77.296875 84.59375 77.09375 80.09375 77.09375 
L 52.09375 77.09375 
C 47.59375 77.09375 44.40625 77.296875 41.703125 77.703125 
z
M 20.40625 4.90625 
C 20.40625 -0.40625 20.203125 -4.5 19.703125 -7.296875 
L 27.59375 -7.296875 
C 27.09375 -4.5 26.90625 -0.5 26.90625 4.90625 
L 26.90625 45.296875 
C 29.703125 48.59375 31.5 50.90625 33.59375 54.296875 
C 35.09375 56.59375 35.40625 57.09375 36.59375 58.59375 
L 30.40625 62.09375 
C 29.40625 59.40625 27.90625 56.59375 25.59375 53.5 
C 19.59375 45.40625 13.203125 39.09375 5.40625 33.796875 
C 7 32.203125 8.09375 30.59375 9.296875 28.09375 
C 14.203125 31.90625 17.09375 34.703125 20.703125 39.296875 
C 20.5 34.5 20.40625 31.59375 20.40625 27.296875 
z
" id="HiraginoSansGB-W3-884c"/>
      <path d="M 20.40625 57.40625 
L 12.796875 57.40625 
C 9.09375 57.40625 7.40625 57.5 5 57.90625 
L 5 51.40625 
C 7.5 51.796875 9.203125 51.90625 12.59375 51.90625 
L 19.40625 51.90625 
C 19.40625 51.703125 19.40625 51.703125 19.203125 51.203125 
C 18.296875 47.40625 15.5 40.5 12.90625 35.40625 
C 9.59375 29 6.203125 24.203125 2.09375 20 
C 3.59375 18.40625 4.703125 16.796875 5.796875 14.5 
C 13.40625 23.5 18 32.40625 20.90625 43.5 
C 20.703125 39.59375 20.40625 30.203125 20.40625 27.90625 
L 20.40625 3.703125 
C 20.40625 -1.40625 20.203125 -4.90625 19.796875 -7.703125 
L 27.09375 -7.703125 
C 26.703125 -5 26.5 -1.796875 26.5 3.796875 
L 26.5 40.40625 
C 29.59375 36.40625 32.296875 32.5 35 28 
L 39.40625 32.203125 
C 35.90625 37.296875 32.5 41.296875 26.5 47.5 
L 26.5 51.90625 
L 32 51.90625 
C 34.796875 51.90625 36.703125 51.796875 38.703125 51.5 
L 38.703125 57.796875 
C 37 57.5 35.09375 57.40625 32.09375 57.40625 
L 26.5 57.40625 
L 26.5 73.5 
C 29.203125 74.40625 33.40625 75.90625 39 78.203125 
L 35 83.5 
C 30.296875 79.90625 19.703125 76.703125 5.59375 74.703125 
C 6.90625 72.90625 7.59375 71.40625 8.40625 69.203125 
C 15.5 70.59375 17.296875 71.09375 20.40625 71.90625 
z
M 61.796875 33.40625 
L 61.796875 21.5 
L 50.59375 21.5 
C 45.59375 21.5 42.796875 21.59375 40.296875 22 
L 40.296875 15.40625 
C 43.296875 15.796875 45.796875 15.90625 50.59375 15.90625 
L 61.796875 15.90625 
L 61.796875 2.203125 
L 44.703125 2.203125 
C 39.40625 2.203125 36.40625 2.296875 33.796875 2.703125 
L 33.796875 -4.09375 
C 37.203125 -3.703125 40.203125 -3.5 44.703125 -3.5 
L 83.59375 -3.5 
C 88.09375 -3.5 91.09375 -3.703125 94.5 -4.09375 
L 94.5 2.796875 
C 91.40625 2.40625 88.296875 2.203125 83.59375 2.203125 
L 68 2.203125 
L 68 15.90625 
L 80.09375 15.90625 
C 84.796875 15.90625 87.796875 15.796875 90.5 15.40625 
L 90.5 22 
C 87.90625 21.59375 85.09375 21.5 80.09375 21.5 
L 68 21.5 
L 68 33.40625 
L 82 33.40625 
C 86.5 33.40625 89.40625 33.203125 92.703125 32.796875 
L 92.703125 39.59375 
C 89.59375 39.203125 86.5 39 82 39 
L 49.90625 39 
C 45.203125 39 42.59375 39.09375 40 39.5 
L 40 32.90625 
C 42.90625 33.296875 45.296875 33.40625 49.703125 33.40625 
z
M 43.296875 55.59375 
C 43.296875 51.90625 43.203125 49.796875 42.90625 47.40625 
C 45.703125 47.59375 48.296875 47.703125 52 47.703125 
L 79.796875 47.703125 
C 83.796875 47.703125 86.203125 47.59375 89 47.40625 
C 88.703125 49.296875 88.59375 51.796875 88.59375 55.796875 
L 88.59375 70.296875 
C 88.59375 73.796875 88.703125 76.203125 89 78.40625 
C 86.296875 78.09375 84.203125 78 80.09375 78 
L 51.90625 78 
C 47.90625 78 45.703125 78.09375 42.90625 78.40625 
C 43.203125 76.09375 43.296875 73.5 43.296875 70.296875 
z
M 49.5 72.40625 
L 82.40625 72.40625 
L 82.40625 53.203125 
L 49.5 53.203125 
z
" id="HiraginoSansGB-W3-7a0b"/>
     </defs>
     <g transform="translate(226.16 335.943375)scale(0.1 -0.1)">
      <use xlink:href="#HiraginoSansGB-W3-884c"/>
      <use x="99.999985" xlink:href="#HiraginoSansGB-W3-7a0b"/>
     </g>
    </g>
   </g>
   <g id="matplotlib.axis_2">
    <g id="ytick_1">
     <g id="line2d_8">
      <defs>
       <path d="M 0 0 
L -3.5 0 
" id="me872ba1566" style="stroke:#000000;stroke-width:0.8;"/>
      </defs>
      <g>
       <use style="stroke:#000000;stroke-width:0.8;" x="57.6" xlink:href="#me872ba1566" y="306.186995"/>
      </g>
     </g>
     <g id="text_9">
      <!-- 0 -->
      <g transform="translate(44.029688 310.016682)scale(0.1 -0.1)">
       <use xlink:href="#HiraginoSansGB-W3-30"/>
      </g>
     </g>
    </g>
    <g id="ytick_2">
     <g id="line2d_9">
      <g>
       <use style="stroke:#000000;stroke-width:0.8;" x="57.6" xlink:href="#me872ba1566" y="252.133326"/>
      </g>
     </g>
     <g id="text_10">
      <!-- 50 -->
      <g transform="translate(37.459375 255.963014)scale(0.1 -0.1)">
       <use xlink:href="#HiraginoSansGB-W3-35"/>
       <use x="65.699997" xlink:href="#HiraginoSansGB-W3-30"/>
      </g>
     </g>
    </g>
    <g id="ytick_3">
     <g id="line2d_10">
      <g>
       <use style="stroke:#000000;stroke-width:0.8;" x="57.6" xlink:href="#me872ba1566" y="198.079658"/>
      </g>
     </g>
     <g id="text_11">
      <!-- 100 -->
      <g transform="translate(30.889063 201.909345)scale(0.1 -0.1)">
       <use xlink:href="#HiraginoSansGB-W3-31"/>
       <use x="65.699997" xlink:href="#HiraginoSansGB-W3-30"/>
       <use x="131.399994" xlink:href="#HiraginoSansGB-W3-30"/>
      </g>
     </g>
    </g>
    <g id="ytick_4">
     <g id="line2d_11">
      <g>
       <use style="stroke:#000000;stroke-width:0.8;" x="57.6" xlink:href="#me872ba1566" y="144.025989"/>
      </g>
     </g>
     <g id="text_12">
      <!-- 150 -->
      <g transform="translate(30.889063 147.855677)scale(0.1 -0.1)">
       <use xlink:href="#HiraginoSansGB-W3-31"/>
       <use x="65.699997" xlink:href="#HiraginoSansGB-W3-35"/>
       <use x="131.399994" xlink:href="#HiraginoSansGB-W3-30"/>
      </g>
     </g>
    </g>
    <g id="ytick_5">
     <g id="line2d_12">
      <g>
       <use style="stroke:#000000;stroke-width:0.8;" x="57.6" xlink:href="#me872ba1566" y="89.972321"/>
      </g>
     </g>
     <g id="text_13">
      <!-- 200 -->
      <g transform="translate(30.889063 93.802008)scale(0.1 -0.1)">
       <use xlink:href="#HiraginoSansGB-W3-32"/>
       <use x="65.699997" xlink:href="#HiraginoSansGB-W3-30"/>
       <use x="131.399994" xlink:href="#HiraginoSansGB-W3-30"/>
      </g>
     </g>
    </g>
    <g id="text_14">
     <!-- 磨损量 ($\mu m$) -->
     <defs>
      <path d="M 52.5 49.296875 
C 48.796875 52 46.796875 53.203125 41.09375 55.90625 
C 41.203125 56.40625 41.203125 56.59375 41.203125 57.296875 
L 47.09375 57.296875 
C 50.296875 57.296875 51.203125 57.203125 52.703125 56.90625 
L 52.703125 62.296875 
C 51.40625 62 49.59375 61.90625 46.90625 61.90625 
L 41.296875 61.90625 
C 41.40625 66.40625 41.40625 66.40625 41.703125 67.90625 
L 35.59375 67.90625 
C 35.796875 66.59375 36 64.90625 36 63 
L 36 61.90625 
L 27.59375 61.90625 
C 24.59375 61.90625 22.703125 62 21.09375 62.296875 
L 21.09375 56.90625 
C 23.203125 57.203125 24.796875 57.296875 27.5 57.296875 
L 34.703125 57.296875 
C 29.90625 51.59375 26.59375 48.90625 19.59375 44.796875 
C 21.40625 43.5 22.5 42.296875 23.5 40.703125 
C 30.203125 45.90625 32.90625 48.703125 36.296875 54.40625 
C 36.09375 51.59375 36 49.09375 36 47.59375 
L 36 43.40625 
C 36 41.296875 35.796875 39.296875 35.5 37.5 
L 41.796875 37.5 
C 41.40625 39.40625 41.296875 41.09375 41.296875 43.5 
L 41.296875 47.5 
C 41.296875 48.796875 41.203125 49.796875 41.203125 50.796875 
C 41.09375 51.296875 41.09375 51.296875 41.09375 51.59375 
C 44.796875 49.296875 47.703125 47.296875 49.90625 45.40625 
z
M 67.5 57.296875 
C 62.296875 51 58 47.59375 49.296875 42.796875 
C 50.90625 41.703125 51.796875 40.796875 53.09375 39.09375 
C 61.703125 44.796875 65.09375 47.90625 69.5 54.40625 
C 69.296875 51.703125 69.203125 50 69.203125 48.5 
L 69.203125 43.59375 
C 69.203125 41.59375 69 39.5 68.703125 37.5 
L 75 37.5 
C 74.59375 39.40625 74.5 41.40625 74.5 43.59375 
L 74.5 48.796875 
C 74.5 49.90625 74.40625 51.09375 74.09375 54.40625 
C 79.09375 47.5 83 44.09375 91.203125 39.40625 
C 92.296875 41.296875 93.09375 42.40625 94.703125 43.90625 
C 86.09375 47.796875 81.90625 50.796875 76.09375 57.296875 
L 84.09375 57.296875 
C 87 57.296875 89.203125 57.203125 91 56.90625 
L 91 62.296875 
C 89.203125 62 87.203125 61.90625 84 61.90625 
L 74.5 61.90625 
L 74.5 63.203125 
C 74.5 65.09375 74.59375 66.5 74.90625 67.90625 
L 68.796875 67.90625 
C 69 66.40625 69.203125 65 69.203125 63.203125 
L 69.203125 61.90625 
L 62.5 61.90625 
C 59.796875 61.90625 57.796875 62 56.203125 62.296875 
L 56.203125 56.90625 
C 58 57.203125 59.90625 57.296875 62.40625 57.296875 
z
M 41.09375 28.59375 
C 37.796875 23.90625 36.90625 22.90625 33.703125 20 
C 28.703125 15.59375 23.296875 12.203125 16.09375 8.90625 
C 17.796875 7.296875 18.796875 6.09375 19.90625 4.09375 
C 25.5 7.09375 28.59375 9.203125 33.40625 13.09375 
L 33.40625 1.796875 
C 33.40625 -1.90625 33.203125 -4.40625 32.90625 -7 
L 39.5 -7 
L 39.5 -2.40625 
L 79.5 -2.40625 
L 79.5 -7.09375 
L 86.203125 -7.09375 
C 85.703125 -4.40625 85.59375 -2.09375 85.59375 1 
L 85.59375 13.203125 
C 85.59375 16.296875 85.703125 18.40625 86 20.59375 
C 83.40625 20.296875 81 20.203125 76.796875 20.203125 
L 41 20.203125 
C 43.40625 22.703125 45 24.703125 47.703125 28.59375 
L 83.5 28.59375 
C 88.5 28.59375 91.5 28.5 94.59375 28.09375 
L 94.59375 34.296875 
C 91.59375 33.90625 89.09375 33.796875 83.5 33.796875 
L 30.90625 33.796875 
C 25 33.796875 23 33.90625 20.5 34.296875 
L 20.5 28.09375 
C 23.40625 28.5 26.203125 28.59375 30.90625 28.59375 
z
M 39.5 15.09375 
L 79.5 15.09375 
L 79.5 2.796875 
L 39.5 2.796875 
z
M 56.296875 76.09375 
C 55.296875 78.296875 54.90625 78.90625 53.09375 81.5 
C 52.59375 82.203125 51.796875 83.296875 50.90625 84.59375 
L 45.90625 82.09375 
C 47.796875 79.703125 48.09375 79.09375 49.796875 76.09375 
L 21.796875 76.09375 
C 17.796875 76.09375 14.59375 76.296875 11.296875 76.59375 
C 11.703125 73.5 11.796875 71 11.796875 63.703125 
C 11.796875 42.5 10.90625 25.90625 9.40625 17.40625 
C 7.90625 9.40625 6.40625 5 2.796875 -0.90625 
C 5.09375 -2.5 6.09375 -3.40625 7.90625 -5.59375 
C 11.90625 1.5 13.90625 7.296875 15.40625 16.5 
C 17.296875 27.796875 17.90625 40.5 17.90625 70.59375 
L 84.296875 70.59375 
C 88.90625 70.59375 91.5 70.5 94.59375 70.09375 
L 94.59375 76.703125 
C 91.59375 76.296875 87.90625 76.09375 83.59375 76.09375 
z
" id="HiraginoSansGB-W3-78e8"/>
      <path d="M 18.796875 57.296875 
L 18.796875 35.203125 
C 11.703125 32.703125 8.09375 31.796875 4.296875 31.296875 
L 6 24.40625 
C 7.703125 25.203125 8.796875 25.59375 10.203125 26.09375 
C 13.90625 27.203125 17 28.203125 18.796875 28.90625 
L 18.796875 2.296875 
C 18.796875 0 18.09375 -0.5 15.203125 -0.5 
C 12.59375 -0.5 10.90625 -0.40625 6.796875 0.09375 
C 7.703125 -2 8 -3.59375 8.203125 -6.203125 
C 12.90625 -6.296875 12.90625 -6.296875 13.90625 -6.296875 
C 22.796875 -6.296875 25.09375 -4.90625 25.09375 0.703125 
L 25.09375 31.203125 
C 31.703125 33.796875 31.703125 33.796875 35.5 35.5 
L 35.796875 41.796875 
C 31.203125 39.59375 30.40625 39.203125 25.09375 37.40625 
L 25.09375 57.296875 
L 29 57.296875 
C 31.90625 57.296875 33.40625 57.203125 35.703125 56.90625 
L 35.703125 63.296875 
C 33.59375 63 32.203125 62.90625 28.90625 62.90625 
L 25.09375 62.90625 
L 25.09375 72.5 
C 25.09375 76.59375 25.296875 79.40625 25.796875 82.40625 
L 18.09375 82.40625 
C 18.59375 79 18.796875 76.703125 18.796875 72.296875 
L 18.796875 62.90625 
L 12.703125 62.90625 
C 9.90625 62.90625 7.90625 63 5.203125 63.5 
L 5.203125 56.90625 
C 7.40625 57.203125 9.90625 57.296875 12.59375 57.296875 
z
M 45.90625 9.703125 
C 45.703125 12 45.59375 16.09375 45.59375 19.90625 
L 45.59375 44.296875 
L 83.09375 44.296875 
L 83.09375 19.5 
C 83.09375 15.296875 83 12.90625 82.59375 9.59375 
L 89.703125 9.59375 
C 89.40625 12.5 89.203125 16 89.203125 19.703125 
L 89.203125 40 
C 89.203125 44.5 89.296875 47.703125 89.59375 49.90625 
C 86.5 49.59375 85.203125 49.59375 79.40625 49.59375 
L 49.296875 49.59375 
C 43.5 49.59375 42.296875 49.59375 39.203125 49.90625 
C 39.5 47.40625 39.59375 44.5 39.59375 40.09375 
L 39.59375 19.703125 
C 39.59375 16.09375 39.40625 12.703125 39.09375 9.703125 
z
M 42.09375 64.59375 
C 42.09375 61.703125 42 59.703125 41.703125 57.59375 
C 44.90625 57.796875 48 57.90625 52.5 57.90625 
L 76.40625 57.90625 
C 81 57.90625 84.203125 57.796875 87.203125 57.59375 
C 86.90625 60.09375 86.796875 61.40625 86.796875 64.296875 
L 86.796875 72.59375 
C 86.796875 75.40625 86.90625 77.296875 87.203125 79.203125 
C 84.203125 78.90625 81.40625 78.796875 76.296875 78.796875 
L 52.296875 78.796875 
C 47.296875 78.796875 44.796875 78.90625 41.703125 79.203125 
C 42 76.59375 42.09375 75 42.09375 72.203125 
z
M 48.203125 73.59375 
L 80.703125 73.59375 
L 80.703125 63.296875 
L 48.203125 63.296875 
z
M 60.59375 38.203125 
C 60.90625 36.203125 61.09375 32.90625 61.09375 28.90625 
C 61.09375 16.09375 58.40625 9.796875 51.203125 5.59375 
C 45.796875 2.5 39.703125 0.59375 29.40625 -1.203125 
C 31.296875 -3.203125 32.09375 -4.40625 33 -6.703125 
C 41.59375 -4.796875 46 -3.40625 51 -1 
C 59.40625 3 63.296875 7.203125 65.5 14.40625 
C 66.40625 17.40625 66.59375 19.09375 66.90625 28.5 
C 67.203125 34.59375 67.203125 35.59375 67.59375 38.203125 
z
M 96.296875 -1.296875 
C 89.796875 1.90625 80.703125 5.703125 69.296875 10 
L 66 5.203125 
C 78.90625 0 80.59375 -0.703125 93.59375 -7 
z
" id="HiraginoSansGB-W3-635f"/>
      <path d="M 52.5 16.796875 
L 72.90625 16.796875 
C 76.296875 16.796875 78.90625 16.703125 82.5 16.40625 
C 82.296875 18 82.203125 20.796875 82.203125 24.40625 
L 82.203125 35.40625 
C 82.203125 38.203125 82.296875 40.09375 82.5 42 
C 79.59375 41.703125 77 41.59375 73.203125 41.59375 
L 27.40625 41.59375 
C 22.90625 41.59375 19.90625 41.703125 17.90625 42 
C 18.09375 39.703125 18.203125 37.796875 18.203125 35.09375 
L 18.203125 24.5 
C 18.203125 20.203125 18.203125 19.09375 17.90625 16.40625 
C 20.796875 16.703125 23.40625 16.796875 27.5 16.796875 
L 46.703125 16.796875 
L 46.703125 11.09375 
L 22 11.09375 
C 17.90625 11.09375 15.703125 11.203125 13.5 11.59375 
L 13.5 5.90625 
C 16.09375 6.296875 18.203125 6.40625 22.203125 6.40625 
L 46.703125 6.40625 
L 46.703125 0.5 
L 15.90625 0.5 
C 11.296875 0.5 8.703125 0.59375 5.703125 1.09375 
L 5.703125 -4.90625 
C 8.59375 -4.5 11.703125 -4.296875 15.90625 -4.296875 
L 84.203125 -4.296875 
C 88.40625 -4.296875 91.40625 -4.5 94.40625 -4.90625 
L 94.40625 1.09375 
C 91.40625 0.59375 88.796875 0.5 84.203125 0.5 
L 52.5 0.5 
L 52.5 6.40625 
L 78.703125 6.40625 
C 82.59375 6.40625 84.703125 6.296875 87.296875 5.90625 
L 87.296875 11.59375 
C 85 11.203125 83 11.09375 78.90625 11.09375 
L 52.5 11.09375 
z
M 46.703125 31.40625 
L 23.90625 31.40625 
L 23.90625 37.09375 
L 46.703125 37.09375 
z
M 52.5 31.40625 
L 52.5 37.09375 
L 76.5 37.09375 
L 76.5 31.40625 
z
M 46.703125 21.296875 
L 23.90625 21.296875 
L 23.90625 27.09375 
L 46.703125 27.09375 
z
M 52.5 21.296875 
L 52.5 27.09375 
L 76.5 27.09375 
L 76.5 21.296875 
z
M 74.09375 56.703125 
C 79.90625 56.703125 81.59375 56.59375 84.09375 56.40625 
C 83.796875 59 83.703125 61.09375 83.703125 64 
L 83.703125 73.09375 
C 83.703125 76.203125 83.796875 78.09375 84.09375 80.296875 
C 81.296875 80 78.796875 79.90625 74.40625 79.90625 
L 26 79.90625 
C 21.703125 79.90625 19 80 16.09375 80.296875 
C 16.40625 78 16.5 76.09375 16.5 73.09375 
L 16.5 64 
C 16.5 60.5 16.40625 58.59375 16.09375 56.40625 
C 18.5 56.59375 20.40625 56.703125 26 56.703125 
z
M 22.203125 75.40625 
L 78 75.40625 
L 78 70.5 
L 22.203125 70.5 
z
M 22.203125 66.203125 
L 77.90625 66.203125 
L 77.90625 61.09375 
L 22.203125 61.09375 
z
M 5.703125 46.296875 
C 8.296875 46.703125 10.703125 46.796875 15.59375 46.796875 
L 84.59375 46.796875 
C 89.59375 46.796875 91.796875 46.703125 94.40625 46.296875 
L 94.40625 52.203125 
C 91.703125 51.796875 88.703125 51.703125 84.5 51.703125 
L 15.59375 51.703125 
C 11.40625 51.703125 8.40625 51.796875 5.703125 52.203125 
z
" id="HiraginoSansGB-W3-91cf"/>
      <path id="HiraginoSansGB-W3-20"/>
      <path d="M 32.703125 -11.90625 
C 27.09375 -3.296875 24.90625 1.203125 22.703125 8.296875 
C 20.40625 15.5 19.296875 23.09375 19.296875 31 
C 19.296875 38.90625 20.40625 46.40625 22.703125 53.59375 
C 24.90625 60.703125 27.09375 65.203125 32.703125 73.796875 
L 26.40625 77.796875 
C 20.59375 68.90625 18.203125 64.09375 15.796875 57 
C 13.09375 48.90625 11.703125 40.296875 11.703125 31 
C 11.703125 21.703125 13.09375 13.09375 15.796875 5 
C 18.203125 -2.203125 20.59375 -7 26.40625 -15.90625 
z
" id="HiraginoSansGB-W3-28"/>
      <path d="M -1.3125 -20.796875 
L 13.375 54.6875 
L 22.40625 54.6875 
L 15.765625 20.65625 
Q 15.578125 19.625 15.421875 18.359375 
Q 15.28125 17.09375 15.28125 15.828125 
Q 15.28125 11.28125 18.140625 8.828125 
Q 21 6.390625 26.3125 6.390625 
Q 33.546875 6.390625 37.984375 10.484375 
Q 42.4375 14.59375 44 22.796875 
L 50.203125 54.6875 
L 59.1875 54.6875 
L 51.03125 12.640625 
Q 50.828125 11.71875 50.75 11.03125 
Q 50.6875 10.359375 50.6875 9.8125 
Q 50.6875 8.296875 51.296875 7.59375 
Q 51.90625 6.890625 53.21875 6.890625 
Q 53.71875 6.890625 54.5625 7.125 
Q 55.421875 7.375 56.984375 8.015625 
L 55.609375 0.78125 
Q 53.46875 -0.296875 51.515625 -0.859375 
Q 49.5625 -1.421875 47.703125 -1.421875 
Q 44.484375 -1.421875 42.65625 0.625 
Q 40.828125 2.6875 40.828125 6.296875 
Q 38.09375 2.390625 34.296875 0.484375 
Q 30.515625 -1.421875 25.390625 -1.421875 
Q 20.84375 -1.421875 17.453125 0.671875 
Q 14.0625 2.78125 12.984375 6.203125 
L 7.71875 -20.796875 
z
" id="DejaVuSans-Oblique-3bc"/>
      <path d="M 89.796875 33.015625 
L 83.40625 0 
L 74.421875 0 
L 80.71875 32.71875 
Q 81.109375 34.8125 81.296875 36.328125 
Q 81.5 37.84375 81.5 38.921875 
Q 81.5 43.3125 79.046875 45.75 
Q 76.609375 48.1875 72.21875 48.1875 
Q 65.671875 48.1875 60.546875 43.28125 
Q 55.421875 38.375 53.90625 30.515625 
L 47.90625 0 
L 38.921875 0 
L 45.3125 32.71875 
Q 45.703125 34.515625 45.890625 36.046875 
Q 46.09375 37.59375 46.09375 38.8125 
Q 46.09375 43.265625 43.65625 45.71875 
Q 41.21875 48.1875 36.921875 48.1875 
Q 30.28125 48.1875 25.140625 43.28125 
Q 20.015625 38.375 18.5 30.515625 
L 12.5 0 
L 3.515625 0 
L 14.203125 54.6875 
L 23.1875 54.6875 
L 21.484375 46.1875 
Q 25.140625 50.984375 30.046875 53.484375 
Q 34.96875 56 40.578125 56 
Q 46.53125 56 50.359375 52.875 
Q 54.203125 49.75 54.984375 44.1875 
Q 59.078125 49.953125 64.46875 52.96875 
Q 69.875 56 75.875 56 
Q 82.90625 56 86.734375 51.953125 
Q 90.578125 47.90625 90.578125 40.484375 
Q 90.578125 38.875 90.375 36.9375 
Q 90.1875 35.015625 89.796875 33.015625 
z
" id="DejaVuSans-Oblique-6d"/>
      <path d="M 2.796875 73.796875 
C 8.40625 65.203125 10.59375 60.703125 12.796875 53.59375 
C 15.09375 46.40625 16.203125 39 16.203125 31 
C 16.203125 23 15.09375 15.5 12.796875 8.296875 
C 10.59375 1.203125 8.40625 -3.296875 2.796875 -11.90625 
L 9.09375 -15.90625 
C 14.90625 -7 17.296875 -2.203125 19.703125 5 
C 22.5 13.09375 23.796875 21.59375 23.796875 31 
C 23.796875 40.296875 22.5 48.90625 19.703125 57 
C 17.296875 64.09375 14.90625 68.90625 9.09375 77.796875 
z
" id="HiraginoSansGB-W3-29"/>
     </defs>
     <g transform="translate(24.789062 202.828)rotate(-90)scale(0.1 -0.1)">
      <use transform="translate(0 0.40625)" xlink:href="#HiraginoSansGB-W3-78e8"/>
      <use transform="translate(99.999985 0.40625)" xlink:href="#HiraginoSansGB-W3-635f"/>
      <use transform="translate(199.999969 0.40625)" xlink:href="#HiraginoSansGB-W3-91cf"/>
      <use transform="translate(299.999954 0.40625)" xlink:href="#HiraginoSansGB-W3-20"/>
      <use transform="translate(333.299942 0.40625)" xlink:href="#HiraginoSansGB-W3-28"/>
      <use transform="translate(368.899933 0.40625)" xlink:href="#DejaVuSans-Oblique-3bc"/>
      <use transform="translate(432.52298 0.40625)" xlink:href="#DejaVuSans-Oblique-6d"/>
      <use transform="translate(529.935089 0.40625)" xlink:href="#HiraginoSansGB-W3-29"/>
     </g>
    </g>
   </g>
   <g id="line2d_13">
    <path clip-path="url(#p634d91e654)" d="M 73.832727 295.488 
L 76.934522 263.391016 
L 81.070249 248.54385 
L 85.205976 226.042351 
L 93.477429 216.695428 
L 105.884609 205.83451 
L 138.970423 191.121186 
L 172.056236 189.250069 
L 205.14205 182.113084 
L 238.227863 179.629337 
L 271.313677 171.999803 
L 304.39949 147.456716 
L 337.485304 108.146892 
L 370.571118 87.713622 
L 398.487273 53.568 
L 398.487273 53.568 
" style="fill:none;stroke:#1f77b4;stroke-linecap:square;stroke-width:1.5;"/>
   </g>
   <g id="line2d_14">
    <path clip-path="url(#p634d91e654)" d="M 73.832727 294.435725 
L 75.900591 276.145891 
L 76.934522 263.142621 
L 77.968454 260.950823 
L 79.002386 257.203711 
L 80.036317 258.25896 
L 81.070249 251.421637 
L 82.104181 243.515339 
L 83.138112 238.050402 
L 84.172044 230.330932 
L 85.205976 226.166022 
L 86.239907 223.367176 
L 87.273839 223.777222 
L 88.307771 220.433558 
L 89.341702 221.087067 
L 90.375634 219.988079 
L 91.409566 219.63854 
L 92.443497 218.646858 
L 93.477429 217.217589 
L 94.511361 216.451241 
L 95.545292 215.10338 
L 98.647087 212.824343 
L 99.681019 211.494397 
L 100.714951 211.122192 
L 101.748882 210.553538 
L 102.782814 209.764128 
L 103.816746 208.594456 
L 104.850677 208.337293 
L 106.918541 206.113806 
L 107.952472 204.715617 
L 108.986404 204.262623 
L 110.020336 204.063403 
L 111.054268 203.490163 
L 112.088199 203.072809 
L 113.122131 202.405469 
L 114.156063 202.266673 
L 115.189994 201.464346 
L 116.223926 201.373182 
L 117.257858 200.865332 
L 118.291789 200.504551 
L 120.359653 199.430867 
L 121.393584 201.040023 
L 122.427516 198.514415 
L 123.461448 198.196358 
L 125.529311 197.064337 
L 127.597174 196.293039 
L 129.665038 195.391606 
L 131.732901 194.109877 
L 132.766833 194.864514 
L 133.800764 193.674823 
L 134.834696 192.956123 
L 135.868628 192.53754 
L 136.902559 192.256764 
L 137.936491 191.829224 
L 141.038286 191.046297 
L 142.072218 191.099273 
L 143.106149 190.937012 
L 144.140081 190.914792 
L 145.174013 190.703884 
L 146.207944 190.891137 
L 147.241876 190.763987 
L 150.343671 190.691966 
L 151.377603 191.487215 
L 152.411534 190.574482 
L 161.71692 190.081379 
L 162.750851 191.038024 
L 163.784783 189.855683 
L 165.852646 189.553412 
L 166.886578 189.504906 
L 167.92051 189.581851 
L 168.954441 189.435475 
L 169.988373 189.449992 
L 171.022305 189.202347 
L 173.090168 189.066265 
L 174.1241 188.160295 
L 175.158031 188.349156 
L 176.191963 188.064677 
L 178.259826 187.649838 
L 180.32769 187.240114 
L 181.361621 187.098794 
L 182.395553 186.774691 
L 183.429485 186.653777 
L 184.463416 188.345675 
L 185.497348 186.263377 
L 186.53128 186.326795 
L 187.565211 185.752789 
L 188.599143 185.598659 
L 189.633075 185.178699 
L 190.667006 185.279506 
L 191.700938 185.081134 
L 192.73487 184.396094 
L 193.768801 184.162281 
L 194.802733 183.760624 
L 195.836665 188.259287 
L 196.870596 183.785705 
L 198.93846 183.378736 
L 199.972391 183.299275 
L 201.006323 182.868535 
L 204.108118 182.767498 
L 205.14205 182.380472 
L 207.209913 182.129537 
L 208.243845 181.878304 
L 209.277776 181.927693 
L 211.34564 181.792724 
L 212.379572 181.52521 
L 214.447435 181.49447 
L 216.515298 181.189247 
L 217.54923 181.813129 
L 218.583162 181.130283 
L 219.617093 181.213933 
L 222.718888 180.826973 
L 223.75282 180.613649 
L 226.854615 180.485822 
L 227.888547 181.862139 
L 228.922478 180.403128 
L 229.95641 180.353971 
L 230.990342 180.078457 
L 233.058205 180.017719 
L 234.092137 179.988307 
L 235.126068 179.769654 
L 236.16 179.433254 
L 238.227863 179.101621 
L 239.261795 179.788104 
L 240.295727 178.046809 
L 241.329658 178.900371 
L 242.36359 177.788681 
L 243.397522 178.620799 
L 244.431453 178.376363 
L 245.465385 178.46714 
L 246.499317 177.613536 
L 247.533248 177.568643 
L 248.56718 178.097162 
L 249.601112 177.467243 
L 250.635043 178.018287 
L 251.668975 176.885046 
L 252.702907 176.677585 
L 253.736838 176.605531 
L 254.77077 175.940649 
L 256.838633 175.894328 
L 258.906497 175.199984 
L 259.940428 174.97861 
L 260.97436 175.032122 
L 262.008292 177.390859 
L 263.042224 174.410014 
L 264.076155 173.958035 
L 266.144019 173.435883 
L 267.17795 173.535633 
L 268.211882 173.166852 
L 269.245814 172.331732 
L 270.279745 172.491742 
L 271.313677 172.024315 
L 272.347609 171.688624 
L 273.38154 170.756112 
L 274.415472 170.48285 
L 275.449404 169.875975 
L 276.483335 170.002276 
L 277.517267 168.136683 
L 278.551199 167.954231 
L 280.619062 166.308562 
L 281.652994 165.050257 
L 282.686925 164.451539 
L 283.720857 164.584215 
L 285.78872 160.509026 
L 286.822652 161.158254 
L 287.856584 160.850655 
L 288.890515 159.228748 
L 289.924447 158.884942 
L 290.958379 157.915116 
L 291.99231 157.644056 
L 293.026242 156.860304 
L 294.060174 155.710146 
L 295.094105 159.286022 
L 296.128037 153.616226 
L 297.161969 153.93948 
L 299.229832 152.138708 
L 300.263764 152.321565 
L 301.297695 151.658744 
L 302.331627 150.45443 
L 303.365559 148.671952 
L 304.39949 147.639806 
L 305.433422 144.563342 
L 306.467354 145.184346 
L 307.501285 143.286232 
L 308.535217 143.001563 
L 309.569149 142.086999 
L 310.60308 141.326506 
L 311.637012 139.912843 
L 312.670944 138.818639 
L 313.704876 135.564268 
L 314.738807 136.110264 
L 315.772739 135.289413 
L 316.806671 132.071597 
L 317.840602 132.638824 
L 318.874534 130.784441 
L 319.908466 131.291342 
L 320.942397 129.685997 
L 321.976329 128.34447 
L 323.010261 127.362125 
L 325.078124 124.4413 
L 326.112056 123.608588 
L 327.145987 119.19558 
L 328.179919 119.896952 
L 329.213851 118.883313 
L 330.247782 119.275173 
L 331.281714 117.70244 
L 332.315646 115.757494 
L 334.383509 112.76384 
L 335.417441 112.213274 
L 336.451372 110.642768 
L 337.485304 110.290581 
L 338.519236 109.418461 
L 339.553167 108.231501 
L 340.587099 107.622704 
L 341.621031 107.979378 
L 342.654962 107.03136 
L 343.688894 106.451992 
L 344.722826 105.051163 
L 345.756757 104.218649 
L 346.790689 103.639281 
L 347.824621 101.861554 
L 348.858552 101.687309 
L 349.892484 102.343465 
L 350.926416 100.754269 
L 351.960347 101.168596 
L 352.994279 99.270482 
L 354.028211 98.396729 
L 355.062142 98.03184 
L 356.096074 96.975972 
L 357.130006 97.008271 
L 358.163937 96.272803 
L 359.197869 94.062571 
L 360.231801 94.67889 
L 361.265732 93.07945 
L 362.299664 91.0625 
L 363.333596 92.222423 
L 364.367528 90.546047 
L 365.401459 90.428432 
L 367.469323 88.480649 
L 368.503254 88.247612 
L 370.571118 86.959317 
L 371.605049 86.013757 
L 372.638981 81.091307 
L 373.672913 83.426083 
L 374.706844 82.35169 
L 375.740776 81.867075 
L 376.774708 80.401681 
L 377.808639 79.352048 
L 378.842571 78.121704 
L 379.876503 77.366144 
L 380.910434 75.278327 
L 381.944366 74.518494 
L 382.978298 72.710976 
L 384.012229 73.811943 
L 385.046161 67.647271 
L 386.080093 65.339433 
L 387.114024 67.453181 
L 388.147956 65.287339 
L 389.181888 64.594661 
L 391.249751 60.504477 
L 392.283683 59.231359 
L 393.317614 55.714406 
L 394.351546 72.068478 
L 395.385478 55.578464 
L 396.419409 54.703671 
L 397.453341 54.658984 
L 398.487273 54.450377 
L 398.487273 54.450377 
" style="fill:none;stroke:#ff7f0e;stroke-linecap:square;stroke-width:1.5;"/>
   </g>
   <g id="patch_3">
    <path d="M 57.6 307.584 
L 57.6 41.472 
" style="fill:none;stroke:#000000;stroke-linecap:square;stroke-linejoin:miter;stroke-width:0.8;"/>
   </g>
   <g id="patch_4">
    <path d="M 414.72 307.584 
L 414.72 41.472 
" style="fill:none;stroke:#000000;stroke-linecap:square;stroke-linejoin:miter;stroke-width:0.8;"/>
   </g>
   <g id="patch_5">
    <path d="M 57.6 307.584 
L 414.72 307.584 
" style="fill:none;stroke:#000000;stroke-linecap:square;stroke-linejoin:miter;stroke-width:0.8;"/>
   </g>
   <g id="patch_6">
    <path d="M 57.6 41.472 
L 414.72 41.472 
" style="fill:none;stroke:#000000;stroke-linecap:square;stroke-linejoin:miter;stroke-width:0.8;"/>
   </g>
   <g id="legend_1">
    <g id="patch_7">
     <path d="M 64.6 78.872 
L 166.6 78.872 
Q 168.6 78.872 168.6 76.872 
L 168.6 48.472 
Q 168.6 46.472 166.6 46.472 
L 64.6 46.472 
Q 62.6 46.472 62.6 48.472 
L 62.6 76.872 
Q 62.6 78.872 64.6 78.872 
z
" style="fill:#ffffff;opacity:0.8;stroke:#cccccc;stroke-linejoin:miter;"/>
    </g>
    <g id="line2d_15">
     <path d="M 66.6 54.631375 
L 86.6 54.631375 
" style="fill:none;stroke:#1f77b4;stroke-linecap:square;stroke-width:1.5;"/>
    </g>
    <g id="line2d_16"/>
    <g id="text_15">
     <!-- 刀具磨损真实值 -->
     <defs>
      <path d="M 80.796875 69.5 
C 80.40625 49.203125 79.40625 34.40625 77.59375 21.703125 
C 75.296875 5 74.59375 3.796875 67.40625 3.796875 
C 62.796875 3.796875 57.90625 4.5 50.5 6.09375 
C 51.5 3.796875 52 1.40625 52.296875 -1.40625 
C 58.296875 -2.296875 63.296875 -2.796875 68.296875 -2.796875 
C 78.90625 -2.796875 81.09375 -0.09375 83.5 14.90625 
C 85.59375 27.796875 86.90625 43.90625 87.40625 60 
C 87.703125 72 87.796875 73.09375 88.203125 76.09375 
C 84.5 75.703125 81.5 75.59375 76.296875 75.59375 
L 22.90625 75.59375 
C 17.796875 75.59375 13.59375 75.796875 10.703125 76.203125 
L 10.703125 68.90625 
C 13.90625 69.296875 17.796875 69.5 22.796875 69.5 
L 40.703125 69.5 
C 40.203125 48.40625 35.90625 32.703125 27.296875 20.90625 
C 21.796875 13.296875 15.796875 7.90625 5.40625 1.203125 
C 7.703125 -0.5 9.203125 -2 10.90625 -4.40625 
C 22 3.796875 28.09375 9.703125 33.90625 18.203125 
C 40.09375 27.296875 44 37.5 46 50.5 
C 47 56.703125 47.203125 58.90625 47.59375 69.5 
z
" id="HiraginoSansGB-W3-5200"/>
      <path d="M 19.90625 19.5 
L 16.203125 19.5 
C 12.09375 19.5 8.59375 19.703125 5.90625 20.09375 
L 5.90625 13 
C 8.796875 13.40625 12.09375 13.59375 16.203125 13.59375 
L 84.40625 13.59375 
C 88.296875 13.59375 91.90625 13.40625 94.703125 13 
L 94.703125 20.09375 
C 92 19.703125 88.5 19.5 84.296875 19.5 
L 80.203125 19.5 
L 80.203125 69.40625 
C 80.203125 74.203125 80.296875 76.796875 80.703125 79.203125 
C 77.203125 78.796875 74.796875 78.703125 70.40625 78.703125 
L 30.59375 78.703125 
C 25.90625 78.703125 22.59375 78.796875 19.40625 79.203125 
C 19.796875 76.40625 19.90625 74.203125 19.90625 69.796875 
z
M 26.09375 19.5 
L 26.09375 29.40625 
L 74 29.40625 
L 74 19.5 
z
M 26.09375 34.796875 
L 26.09375 44.09375 
L 74 44.09375 
L 74 34.796875 
z
M 74 73.203125 
L 74 64.203125 
L 26.09375 64.203125 
L 26.09375 73.203125 
z
M 74 58.796875 
L 74 49.5 
L 26.09375 49.5 
L 26.09375 58.796875 
z
M 35.296875 11.40625 
C 31.203125 7.796875 28.90625 6.203125 24.90625 4.09375 
C 20 1.703125 16.09375 0.40625 7.40625 -1.703125 
C 9.703125 -3.90625 10.40625 -4.796875 11.90625 -7.296875 
C 25.703125 -3.203125 31.59375 -0.09375 40.90625 7.796875 
z
M 59.703125 7.5 
C 69.90625 3.59375 75.796875 0.40625 87 -7.296875 
L 91.40625 -2 
C 80.40625 4.796875 73.59375 8.203125 63.703125 11.5 
z
" id="HiraginoSansGB-W3-5177"/>
      <path d="M 19.90625 16.296875 
L 16.09375 16.296875 
C 11.796875 16.296875 8.90625 16.5 6 16.90625 
L 6 10.296875 
C 9.09375 10.703125 12 10.90625 16 10.90625 
L 84.5 10.90625 
C 88.40625 10.90625 91.5 10.703125 94.59375 10.296875 
L 94.59375 16.90625 
C 91.40625 16.5 88.59375 16.296875 84.203125 16.296875 
L 80.5 16.296875 
L 80.5 51.296875 
C 80.5 56.203125 80.59375 58.90625 80.90625 62.09375 
C 78 61.796875 74.703125 61.703125 69.40625 61.703125 
L 50.296875 61.703125 
C 50.703125 63.203125 51.296875 66.296875 51.90625 69 
L 82 69 
C 86.40625 69 89.40625 68.796875 92.59375 68.40625 
L 92.59375 75 
C 89.40625 74.59375 86.5 74.40625 82 74.40625 
L 52.90625 74.40625 
C 53.203125 76.5 53.296875 77.09375 53.59375 78.5 
C 54 81.40625 54.09375 82.203125 54.40625 83.59375 
L 47.40625 84 
C 47.40625 83.59375 47.40625 83.40625 47.40625 83.203125 
C 47.40625 81.09375 47.203125 78.40625 46.703125 74.40625 
L 17.90625 74.40625 
C 13.296875 74.40625 10.59375 74.59375 7.5 75 
L 7.5 68.40625 
C 10.5 68.796875 13.40625 69 17.90625 69 
L 45.796875 69 
C 45.203125 66.09375 44.90625 64.40625 44.203125 61.703125 
L 31.09375 61.703125 
C 25.703125 61.703125 22.40625 61.796875 19.5 62.09375 
C 19.796875 58.90625 19.90625 55.796875 19.90625 51.296875 
z
M 25.796875 50.203125 
L 25.796875 56.703125 
L 74.59375 56.703125 
L 74.59375 50.203125 
z
M 25.796875 45.59375 
L 74.59375 45.59375 
L 74.59375 39 
L 25.796875 39 
z
M 25.796875 34.40625 
L 74.59375 34.40625 
L 74.59375 27.796875 
L 25.796875 27.796875 
z
M 25.796875 23.203125 
L 74.59375 23.203125 
L 74.59375 16.296875 
L 25.796875 16.296875 
z
M 35.296875 9.296875 
C 31.296875 6.09375 28.796875 4.703125 23.59375 2.5 
C 18.203125 0.296875 14.203125 -0.90625 7.09375 -2.40625 
C 9 -4.296875 10.203125 -5.703125 11.40625 -8 
C 24 -4.5 31.796875 -0.90625 40.296875 5.40625 
z
M 60.09375 5.203125 
C 71.203125 1.203125 80.703125 -2.90625 89.203125 -7.40625 
L 93.203125 -1.90625 
C 83.703125 2.703125 74.796875 6.203125 63.296875 9.796875 
z
" id="HiraginoSansGB-W3-771f"/>
      <path d="M 55.796875 27.5 
C 57.203125 33.703125 58.296875 44.703125 58.40625 53.40625 
C 58.5 57.203125 58.59375 59.203125 59.09375 61.90625 
L 50.90625 61.90625 
C 51.40625 59.59375 51.703125 56.90625 51.703125 52.09375 
C 51.703125 42.90625 50.59375 33 49.09375 27.5 
L 17 27.5 
C 11.796875 27.5 8.703125 27.703125 6.09375 28.09375 
L 6.09375 21 
C 8.796875 21.40625 11.796875 21.59375 17 21.59375 
L 47.203125 21.59375 
C 44.40625 15.296875 41.203125 11.90625 34.09375 8 
C 26.203125 3.59375 17.296875 1 4.296875 -0.59375 
C 6.296875 -2.296875 7.703125 -4.296875 8.703125 -6.90625 
C 22.40625 -3.90625 30.203125 -1.203125 37.296875 2.796875 
C 46.09375 7.796875 51.40625 13.703125 54.203125 21.59375 
L 82.90625 21.59375 
C 87.5 21.59375 90.796875 21.40625 94.09375 21 
L 94.09375 28.09375 
C 91.296875 27.59375 88.5 27.5 82.90625 27.5 
z
M 53.796875 73.5 
C 51.703125 78.203125 50.40625 80.203125 47.203125 84.5 
L 41.90625 81.59375 
C 44.59375 77.90625 45.90625 76 47.09375 73.5 
L 18.5 73.5 
C 14.796875 73.5 12.296875 73.59375 8.5 74 
C 8.703125 71.796875 8.90625 69.90625 8.90625 67.09375 
L 8.90625 59.296875 
C 8.90625 56.796875 8.703125 54.703125 8.40625 52.296875 
L 15.09375 52.296875 
L 15.09375 67.703125 
L 85.09375 67.703125 
L 85.09375 52.296875 
L 91.90625 52.296875 
C 91.5 54.59375 91.40625 56.59375 91.40625 59.203125 
L 91.40625 67.09375 
C 91.40625 70.09375 91.5 71.90625 91.796875 74 
C 87.796875 73.59375 85.40625 73.5 81.703125 73.5 
z
M 39.796875 38.09375 
C 32.203125 42.203125 25.203125 45.09375 16.796875 47.703125 
L 13.09375 42.59375 
C 21.09375 40.5 28.90625 37.203125 36.203125 32.703125 
z
M 93 -0.796875 
C 81.796875 5.703125 69.796875 11.796875 57.203125 17.59375 
L 54 12.703125 
C 58.796875 10.296875 59.203125 10.09375 69.703125 4.5 
C 82.296875 -2.203125 83.203125 -2.796875 89.203125 -6.703125 
z
M 46.5 51.5 
C 38.703125 55.90625 34.09375 57.90625 24.796875 61.203125 
L 21.09375 56.5 
C 30.59375 53.203125 36 50.703125 43.09375 46.09375 
z
" id="HiraginoSansGB-W3-5b9e"/>
      <path d="M 45.40625 57.90625 
C 42.203125 57.90625 40 58 37.90625 58.203125 
C 38.09375 56.09375 38.296875 53.59375 38.296875 50.5 
L 38.296875 1.09375 
L 36.203125 1.09375 
C 33.5 1.09375 30.40625 1.296875 27.90625 1.703125 
L 27.90625 -5.203125 
C 31.5 -4.796875 34.09375 -4.703125 38 -4.703125 
L 84.296875 -4.703125 
C 89 -4.703125 92 -4.90625 95 -5.296875 
L 95 1.703125 
C 92.40625 1.40625 89.203125 1.09375 87.296875 1.09375 
L 86.09375 1.09375 
L 86.09375 50.5 
C 86.09375 53.796875 86.203125 56 86.5 58.203125 
C 84.09375 58 82.203125 57.90625 78.90625 57.90625 
L 61.5 57.90625 
C 62.90625 63.5 63.703125 66.90625 64 68.203125 
L 84.296875 68.203125 
C 89 68.203125 92 68 95 67.59375 
L 95 74.296875 
C 91.703125 73.90625 88.90625 73.703125 84.40625 73.703125 
L 65 73.703125 
C 65.09375 74.59375 65.09375 74.59375 65.296875 75.40625 
C 65.5 76.796875 65.5 76.90625 65.796875 78.296875 
C 66.40625 81.90625 66.40625 81.90625 66.59375 83 
L 59.59375 83.5 
C 59.59375 83 59.59375 82.796875 59.59375 82.5 
C 59.59375 80.703125 59.40625 79.40625 58.703125 73.703125 
L 40.796875 73.703125 
C 36.703125 73.703125 34 73.90625 31.203125 74.296875 
L 31.203125 67.703125 
C 34.59375 68.09375 37.40625 68.203125 40.796875 68.203125 
L 57.703125 68.203125 
C 56.796875 63.796875 56.703125 63.40625 55.203125 57.90625 
z
M 44.59375 52.90625 
L 79.796875 52.90625 
L 79.796875 43.703125 
L 44.59375 43.703125 
z
M 44.59375 38.796875 
L 79.796875 38.796875 
L 79.796875 29.59375 
L 44.59375 29.59375 
z
M 44.59375 24.703125 
L 79.796875 24.703125 
L 79.796875 15.5 
L 44.59375 15.5 
z
M 44.59375 10.5 
L 79.796875 10.5 
L 79.796875 1.09375 
L 44.59375 1.09375 
z
M 21.40625 56.90625 
C 22.5 59.59375 22.5 59.59375 25.90625 67.40625 
C 26.796875 69.296875 27.40625 70.90625 29.203125 76.203125 
C 30 78.59375 30.296875 79.703125 31.09375 81.59375 
L 24 83.40625 
C 23.5 79.796875 22.90625 77.59375 20.90625 72.09375 
C 16.59375 59.90625 10.703125 50 2.59375 41.203125 
C 4.296875 39.59375 5.5 38 6.90625 35.703125 
C 10.40625 39.796875 12.40625 42.796875 15.296875 48.203125 
C 15.09375 43 15 40.203125 15 36.203125 
L 15 5.09375 
C 15 -0.203125 14.796875 -3.40625 14.40625 -7.09375 
L 21.90625 -7.09375 
C 21.5 -3.90625 21.40625 0.09375 21.40625 5 
z
" id="HiraginoSansGB-W3-503c"/>
     </defs>
     <g transform="translate(94.6 58.131375)scale(0.1 -0.1)">
      <use xlink:href="#HiraginoSansGB-W3-5200"/>
      <use x="99.999985" xlink:href="#HiraginoSansGB-W3-5177"/>
      <use x="199.999969" xlink:href="#HiraginoSansGB-W3-78e8"/>
      <use x="299.999954" xlink:href="#HiraginoSansGB-W3-635f"/>
      <use x="399.999939" xlink:href="#HiraginoSansGB-W3-771f"/>
      <use x="499.999924" xlink:href="#HiraginoSansGB-W3-5b9e"/>
      <use x="599.999908" xlink:href="#HiraginoSansGB-W3-503c"/>
     </g>
    </g>
    <g id="line2d_17">
     <path d="M 66.6 69.331375 
L 86.6 69.331375 
" style="fill:none;stroke:#ff7f0e;stroke-linecap:square;stroke-width:1.5;"/>
    </g>
    <g id="line2d_18"/>
    <g id="text_16">
     <!-- 深度学习预测值 -->
     <defs>
      <path d="M 85.09375 30.5 
C 88.5 30.5 92.09375 30.296875 94.796875 30 
L 94.796875 36.59375 
C 92 36.203125 88.796875 36 85.09375 36 
L 63 36 
L 63 40.5 
C 63 43.296875 63.09375 45.40625 63.5 47.703125 
L 56.59375 47.703125 
C 56.90625 45.59375 57.09375 43.09375 57.09375 40.40625 
L 57.09375 36 
L 40.09375 36 
C 36.09375 36 33 36.203125 30.203125 36.59375 
L 30.203125 29.90625 
C 32.90625 30.296875 36.40625 30.5 40.09375 30.5 
L 55.296875 30.5 
C 48.5 19.796875 39.296875 12.5 24.90625 6.09375 
C 26.703125 4.5 27.59375 3.40625 29.203125 0.796875 
C 35.09375 3.796875 40.09375 7 44.90625 11.09375 
C 50.5 15.796875 53.5 19.296875 57.5 25.5 
C 57.203125 21 57.09375 18 57.09375 15.296875 
L 57.09375 3 
C 57.09375 -1.09375 56.90625 -4.40625 56.5 -7.09375 
L 63.59375 -7.09375 
C 63.203125 -4.296875 63 -1.203125 63 2.90625 
L 63 15.40625 
C 63 18.90625 62.90625 21.40625 62.59375 25.796875 
C 66.796875 20 70.703125 15.796875 75.5 11.796875 
C 80.296875 7.90625 87.296875 3.40625 93.5 0.40625 
C 94.703125 3.296875 95.5 4.59375 97.296875 6.59375 
C 82.90625 12.203125 72.09375 20.09375 64.796875 30.5 
z
M 8.90625 77.703125 
C 15.5 73.09375 19.5 69.40625 24.703125 62.90625 
L 28.796875 68.09375 
C 23.40625 74 19.5 77.40625 13 82.203125 
z
M 4.203125 53.296875 
C 11.203125 49.09375 15.203125 45.796875 21.5 39.5 
L 25.40625 45 
C 19 50.796875 14.59375 54 8 58 
z
M 20.703125 30 
C 15.296875 15.09375 10.203125 5.40625 4.796875 -0.09375 
L 10.703125 -5.296875 
C 12.203125 -2.5 12.203125 -2.5 13.203125 -0.90625 
C 18 7.09375 21.703125 14.90625 26 26.09375 
z
M 31.90625 66.59375 
C 31.90625 64.59375 31.796875 62.59375 31.59375 60.796875 
L 37.796875 60.796875 
L 37.796875 73.5 
L 86.40625 73.5 
L 86.40625 61 
L 92.703125 61 
C 92.5 62.796875 92.40625 64.40625 92.40625 67 
L 92.40625 72.296875 
C 92.40625 75.203125 92.5 77.296875 92.703125 79.203125 
C 90.203125 78.90625 87.296875 78.796875 81.296875 78.796875 
L 41.703125 78.796875 
C 37.09375 78.796875 34.5 78.90625 31.59375 79.203125 
C 31.796875 77.09375 31.90625 75.5 31.90625 72.796875 
z
M 66.796875 63.203125 
C 74.296875 57.09375 79.09375 52.203125 86.40625 43.203125 
L 90.703125 47.90625 
C 83.40625 56.09375 79.703125 59.59375 70.703125 66.796875 
z
M 51.796875 66.796875 
C 49 62 47.296875 59.59375 44.296875 56.296875 
C 40.796875 52.59375 38.40625 50.59375 32.703125 47.203125 
C 34.703125 45.5 34.90625 45.203125 36 43.5 
C 36.09375 43.296875 36.40625 42.90625 36.703125 42.40625 
C 46.09375 49 49.796875 52.90625 57.203125 64.203125 
z
" id="HiraginoSansGB-W3-6df1"/>
      <path d="M 38 53.296875 
L 38 43.40625 
C 38 41.40625 37.90625 39.296875 37.703125 37.40625 
C 39.09375 37.59375 40.90625 37.59375 44.90625 37.59375 
L 67.203125 37.59375 
C 71 37.59375 71.703125 37.59375 73.703125 37.40625 
C 73.5 39.203125 73.40625 41.09375 73.40625 43.40625 
L 73.40625 53.296875 
L 85.40625 53.296875 
C 89.703125 53.296875 92.296875 53.203125 94.5 52.796875 
L 94.5 59.203125 
C 92.09375 58.796875 89.90625 58.703125 85.40625 58.703125 
L 73.40625 58.703125 
L 73.40625 60.203125 
C 73.40625 63.09375 73.5 65 73.796875 66.796875 
L 66.90625 66.796875 
C 67.09375 64.90625 67.296875 62.796875 67.296875 60.203125 
L 67.296875 58.703125 
L 44.09375 58.703125 
L 44.09375 60.40625 
C 44.09375 62.90625 44.203125 64.703125 44.5 66.796875 
L 37.59375 66.796875 
C 37.90625 64.90625 38 63.09375 38 60.296875 
L 38 58.703125 
L 19.796875 58.703125 
L 19.90625 69.296875 
L 83.90625 69.296875 
C 88.59375 69.296875 91.296875 69.203125 94.296875 68.796875 
L 94.296875 75.40625 
C 91.703125 75 88.703125 74.796875 83.40625 74.796875 
L 58.90625 74.796875 
C 58.296875 75.703125 58.296875 75.796875 58.203125 75.90625 
C 54.59375 82 54.59375 82 52.796875 84.59375 
L 47.40625 81.59375 
C 49.40625 78.90625 49.90625 78.09375 51.90625 74.796875 
L 23.40625 74.796875 
C 19.5 74.796875 16.296875 75 13.09375 75.296875 
C 13.40625 72.40625 13.5 69.40625 13.5 63.09375 
C 13.5 40.703125 12.59375 26.796875 10.5 16.90625 
C 9.09375 10 7.09375 5 3.40625 -1.203125 
C 5.5 -2.59375 6.90625 -3.796875 8.703125 -6.09375 
C 13.203125 2.09375 15.296875 8 17 16.90625 
C 18.703125 26.09375 19.40625 34.59375 19.796875 53.296875 
z
M 44.09375 53.296875 
L 67.296875 53.296875 
L 67.296875 42.703125 
L 44.09375 42.703125 
z
M 78.40625 30.09375 
C 76.40625 29.90625 74.703125 29.796875 71.5 29.796875 
L 35.203125 29.796875 
C 30.09375 29.796875 27.296875 29.90625 25.09375 30.296875 
L 25.09375 24.09375 
C 27.703125 24.5 29.90625 24.59375 35 24.59375 
C 40.09375 17.203125 44.5 12.5 51.09375 7.796875 
C 41.796875 3.203125 32.09375 0.59375 17.5 -1.296875 
C 19 -3.703125 19.703125 -5.203125 20.296875 -7.5 
C 35.90625 -4.796875 45.59375 -1.59375 56.59375 4.296875 
C 66.5 -1.5 77.09375 -4.90625 92 -7.09375 
C 92.796875 -4.5 93.59375 -2.703125 95 -0.5 
C 83 0.296875 72.203125 3.09375 62.40625 7.796875 
C 67.90625 11.59375 74 17.09375 78.59375 22.40625 
C 80.296875 24.40625 80.796875 24.90625 82 26.203125 
z
M 72.703125 24.59375 
C 66.40625 17.796875 63.203125 15.09375 56.703125 11 
C 50 15.203125 45.703125 19.203125 42 24.59375 
z
" id="HiraginoSansGB-W3-5ea6"/>
      <path d="M 33.296875 67.09375 
C 30 72.90625 27.703125 76.296875 23.09375 81.90625 
L 17.09375 80 
C 21.796875 74.703125 23.90625 71.796875 26.5 67 
L 19.5 67 
C 14 67 11.796875 67.09375 8.09375 67.5 
C 8.40625 64.90625 8.5 62.90625 8.5 59.203125 
L 8.5 51.796875 
C 8.5 49.296875 8.296875 47.09375 8 44.796875 
L 14.59375 44.796875 
L 14.59375 61.59375 
L 85.203125 61.59375 
L 85.203125 44.796875 
L 91.796875 44.796875 
C 91.5 47.09375 91.296875 49.5 91.296875 51.796875 
L 91.296875 59.203125 
C 91.296875 62.90625 91.40625 64.90625 91.703125 67.5 
C 88.203125 67.203125 86 67.09375 80.203125 67.09375 
L 72.40625 67.09375 
C 75.296875 70.296875 77.90625 73.90625 82 80.5 
L 75.703125 83.203125 
C 72.90625 76.90625 69.90625 72.203125 65.40625 67.09375 
L 54.40625 67.09375 
C 52.203125 73.203125 50.59375 76.5 46.796875 83.203125 
L 40.59375 81.5 
C 44 76.296875 46.09375 72.09375 47.90625 67.09375 
z
M 47.09375 21.90625 
L 47.09375 1.796875 
C 47.09375 -0.203125 46.40625 -0.5 42 -0.5 
C 38.203125 -0.5 34.09375 -0.203125 28.703125 0.5 
C 29.703125 -1.703125 30.09375 -3 30.796875 -5.90625 
C 34.5 -6.203125 38.90625 -6.40625 42 -6.40625 
C 51.703125 -6.40625 53.5 -5.296875 53.5 0.90625 
L 53.5 21.90625 
L 83.09375 21.90625 
C 87.5 21.90625 90.90625 21.703125 93.703125 21.296875 
L 93.703125 28.203125 
C 90.90625 27.796875 87.703125 27.59375 83.203125 27.59375 
L 53.5 27.59375 
L 53.5 30.703125 
C 63.40625 35.796875 69.59375 39.90625 76.296875 45.5 
C 78.5 47.40625 78.5 47.40625 79.796875 48.40625 
L 76 52.40625 
C 74.296875 52.09375 72.296875 52 68.59375 52 
L 32.5 52 
C 28.796875 52 25.59375 52.203125 22.796875 52.5 
L 22.796875 46 
C 25.5 46.296875 28.90625 46.5 32.296875 46.5 
L 68.90625 46.5 
C 63.59375 42.09375 57.90625 38.5 51 35.203125 
L 46.796875 35.203125 
C 47 33.09375 47.09375 31.296875 47.09375 29.296875 
L 47.09375 27.59375 
L 17 27.59375 
C 12.703125 27.59375 9.5 27.796875 6.59375 28.203125 
L 6.59375 21.296875 
C 9.59375 21.703125 12.703125 21.90625 17.09375 21.90625 
z
" id="HiraginoSansGB-W3-5b66"/>
      <path d="M 80.59375 69.09375 
C 80 49.09375 80 49.09375 79.5 40.40625 
C 78.40625 23.59375 76.5 10.203125 74.703125 6.703125 
C 73.5 4.296875 71.796875 3.59375 67.5 3.59375 
C 63 3.59375 58.796875 4.203125 50.796875 6 
C 51.796875 3.296875 52.296875 1.296875 52.59375 -1.59375 
C 59.59375 -2.59375 64.40625 -3 69.09375 -3 
C 78 -3 80.703125 -0.59375 82.90625 9.59375 
C 84.90625 19 86.59375 38.90625 87.203125 59.90625 
C 87.40625 65.203125 87.5 68.09375 88 75.90625 
C 84.296875 75.5 81.796875 75.40625 76.09375 75.40625 
L 24.40625 75.40625 
C 19.203125 75.40625 15.5 75.59375 12.203125 76 
L 12.203125 68.5 
C 15.90625 68.90625 19.296875 69.09375 24.296875 69.09375 
z
M 22.90625 57.203125 
C 35.5 49.40625 40.703125 45.40625 49.40625 36.5 
L 54.40625 42 
C 45.703125 50.203125 40.90625 53.796875 27.40625 62.203125 
z
M 70.796875 35.40625 
C 51.40625 26.796875 29.703125 19.90625 12.5 16.703125 
L 15.796875 9 
C 19.40625 10.40625 21.59375 11.09375 25.5 12.296875 
C 49.796875 19.59375 57.40625 22.203125 72 28.40625 
z
" id="HiraginoSansGB-W3-4e60"/>
      <path d="M 23.5 60.59375 
C 18.296875 65.40625 18.296875 65.40625 15 67.796875 
L 10.5 64.296875 
C 17.40625 59 21.203125 55.40625 26.796875 48.40625 
L 14.203125 48.40625 
C 10.296875 48.40625 7.40625 48.59375 4.90625 49 
L 4.90625 42.296875 
C 7.59375 42.703125 10.703125 42.90625 14.40625 42.90625 
L 20.796875 42.90625 
L 20.796875 2.09375 
C 20.796875 0.09375 20.40625 -0.203125 18 -0.203125 
C 14.203125 -0.203125 11.09375 0.09375 7.09375 0.90625 
C 7.703125 -1.59375 8 -3.203125 8.09375 -5.59375 
C 12.296875 -5.90625 14.59375 -6 17.40625 -6 
C 25.5 -6 27 -4.90625 27 1 
L 27 42.90625 
L 38 42.90625 
C 36 37.5 33.90625 34 29.796875 29.40625 
C 31.90625 28.40625 33.296875 27.40625 34.703125 25.703125 
C 38.203125 30.40625 40.59375 34.296875 42.09375 37.90625 
C 44.40625 43.59375 44.5 44 45.296875 45.296875 
L 41.59375 48.796875 
C 39.90625 48.5 37.90625 48.40625 34.203125 48.40625 
L 27.796875 48.40625 
L 32.09375 51.796875 
C 30 54.09375 29.40625 54.796875 27.5 56.703125 
C 30.40625 59.5 30.40625 59.5 31.5 60.703125 
C 34.296875 63.90625 38.796875 69.703125 40.296875 72.203125 
C 40.703125 72.796875 40.90625 73.09375 41 73.203125 
C 41.703125 74.09375 41.703125 74.09375 42 74.40625 
C 42.09375 74.59375 42.296875 74.90625 42.5 75.203125 
L 39.296875 79.296875 
C 37.703125 79 35.59375 78.90625 31.59375 78.90625 
L 16.203125 78.90625 
C 12.203125 78.90625 9.296875 79.09375 6.5 79.5 
L 6.5 72.796875 
C 9.296875 73.203125 12.203125 73.40625 15.90625 73.40625 
L 34 73.40625 
C 31 68.703125 28.40625 65.40625 25.203125 62.296875 
z
M 68 74 
C 67.296875 70.90625 65.90625 67 63.90625 62.703125 
L 57.09375 62.703125 
C 52.796875 62.703125 50.703125 62.796875 47.796875 63 
C 48.09375 61 48.203125 58.703125 48.203125 55.5 
L 48.203125 25.40625 
C 48.203125 21.09375 48 18.5 47.59375 15.40625 
L 54.59375 15.40625 
C 54.203125 18.5 54 21.09375 54 25.40625 
L 54 57.40625 
L 85.5 57.40625 
L 85.5 25.40625 
C 85.5 21 85.296875 18.40625 84.90625 15.296875 
L 92.09375 15.296875 
C 91.703125 18.40625 91.5 21 91.5 25.40625 
L 91.5 56 
C 91.5 59.296875 91.59375 61.296875 91.90625 63 
C 89.09375 62.796875 86.796875 62.703125 82.09375 62.703125 
L 70.40625 62.703125 
C 73.09375 69.296875 73.59375 70.5 74.703125 74 
L 86.40625 74 
C 90.40625 74 92.703125 73.90625 95.59375 73.5 
L 95.59375 80 
C 93.40625 79.59375 90.796875 79.40625 86.09375 79.40625 
L 54.90625 79.40625 
C 50.203125 79.40625 48.203125 79.5 45.296875 80 
L 45.296875 73.59375 
C 47.59375 73.90625 49.796875 74 54.703125 74 
z
M 72.59375 7.90625 
C 80.203125 3.40625 85.796875 -0.796875 92.796875 -7.296875 
L 96.59375 -1.90625 
C 90.40625 3.40625 84.09375 7.703125 76.09375 12.40625 
z
M 66 50.796875 
C 66.40625 48.703125 66.59375 45.296875 66.59375 41.796875 
L 66.59375 28.796875 
C 66.59375 21.296875 66.09375 17.703125 64.59375 14.203125 
C 62.90625 10.40625 59.296875 6.59375 55.296875 4.5 
C 50.09375 1.703125 46.203125 0.5 35.203125 -1.703125 
C 37.203125 -3.703125 38.59375 -5.40625 39.703125 -7.40625 
C 46.703125 -5.59375 50.296875 -4.5 53.203125 -3.203125 
C 60.703125 -0.203125 65.296875 3.296875 68.5 8.40625 
C 71.796875 13.59375 72.796875 18.296875 72.796875 28.796875 
L 72.796875 41.703125 
C 72.796875 45.90625 73 48.796875 73.40625 50.796875 
z
" id="HiraginoSansGB-W3-9884"/>
      <path d="M 8.90625 77.59375 
C 15.703125 73.203125 19.296875 70.09375 24.90625 63.90625 
L 29 69.203125 
C 23.5 74.59375 19.796875 77.59375 13.09375 82.09375 
z
M 4.296875 53.296875 
C 11.296875 49 15.09375 45.90625 21.5 39.40625 
L 25.5 45 
C 19.09375 50.703125 15 53.796875 8.09375 58 
z
M 20.203125 28.5 
C 15.09375 14.59375 10.09375 5.09375 4.59375 -0.90625 
L 10.40625 -6.09375 
C 10.796875 -5.296875 10.90625 -5.203125 14.09375 0.40625 
C 18.203125 7.40625 21.59375 14.796875 25.40625 24.703125 
z
M 76.5 16.296875 
C 76.09375 18.796875 76 21.796875 76 26.796875 
L 76 65.703125 
C 76 70.796875 76.09375 73.40625 76.59375 76.203125 
L 69.40625 76.203125 
C 69.796875 73.296875 69.90625 70.5 69.90625 65.703125 
L 69.90625 26.796875 
C 69.90625 21.703125 69.796875 19.09375 69.296875 16.296875 
z
M 36.5 16.40625 
C 36.40625 18.703125 36.296875 21.296875 36.296875 25.40625 
L 36.296875 73.90625 
L 56 73.90625 
L 56 25.703125 
C 56 22.5 55.796875 18.296875 55.59375 16.40625 
L 62.203125 16.40625 
C 62 19.296875 61.90625 22.296875 61.90625 25.90625 
L 61.90625 70.40625 
C 61.90625 74 62 77.296875 62.203125 79.59375 
C 60 79.296875 57.703125 79.203125 53.203125 79.203125 
L 38.796875 79.203125 
C 34.5 79.203125 32.796875 79.296875 30 79.5 
C 30.296875 76.703125 30.40625 74 30.40625 70.09375 
L 30.40625 25.40625 
C 30.40625 21.703125 30.296875 18.90625 30.09375 16.40625 
z
M 46.703125 9.09375 
C 51.796875 4.703125 56.40625 -0.09375 60.796875 -6 
L 64.59375 -0.90625 
C 59.703125 4.90625 56.59375 7.90625 50.296875 13.40625 
z
M 85 81 
C 85.40625 77.703125 85.59375 74.59375 85.59375 69.296875 
L 85.59375 2.296875 
C 85.59375 0.09375 84.796875 -0.296875 80.703125 -0.296875 
C 78 -0.296875 75.40625 -0.09375 70.703125 0.5 
C 71.59375 -1.59375 71.90625 -2.796875 72.296875 -5.796875 
C 75.796875 -6 77.09375 -6 80.5 -6 
C 89.59375 -6 91.796875 -4.5 91.796875 1.59375 
L 91.796875 69.296875 
C 91.796875 74.796875 92 78.296875 92.40625 81 
z
M 42.703125 66.59375 
C 43.09375 63 43.203125 61.09375 43.203125 53.703125 
L 43.203125 37.203125 
C 43.203125 22.703125 42.40625 16.703125 39.59375 11.40625 
C 36.703125 6 32.90625 2.203125 25.40625 -2.59375 
C 27.796875 -4.5 28.40625 -5.09375 29.90625 -7.5 
C 37.40625 -1.796875 41.09375 2 44 6.90625 
C 48 13.5 49.09375 20.296875 49.09375 37.203125 
L 49.09375 53.90625 
C 49.09375 59.40625 49.203125 63.40625 49.5 66.59375 
z
" id="HiraginoSansGB-W3-6d4b"/>
     </defs>
     <g transform="translate(94.6 72.831375)scale(0.1 -0.1)">
      <use xlink:href="#HiraginoSansGB-W3-6df1"/>
      <use x="99.999985" xlink:href="#HiraginoSansGB-W3-5ea6"/>
      <use x="199.999969" xlink:href="#HiraginoSansGB-W3-5b66"/>
      <use x="299.999954" xlink:href="#HiraginoSansGB-W3-4e60"/>
      <use x="399.999939" xlink:href="#HiraginoSansGB-W3-9884"/>
      <use x="499.999924" xlink:href="#HiraginoSansGB-W3-6d4b"/>
      <use x="599.999908" xlink:href="#HiraginoSansGB-W3-503c"/>
     </g>
    </g>
   </g>
  </g>
 </g>
 <defs>
  <clipPath id="p634d91e654">
   <rect height="266.112" width="357.12" x="57.6" y="41.472"/>
  </clipPath>
 </defs>
</svg>
